M48
; DRILL file KiCad 10.0.4 date 2026-07-18T09:35:18
; FORMAT={-:-/ absolute / inch / decimal}
; #@! TF.CreationDate,2026-07-18T09:35:18+02:00
; #@! TF.GenerationSoftware,Kicad,Pcbnew,10.0.4
; #@! TF.FileFunction,MixedPlating,1,2
FMAT,2
INCH
; #@! TA.AperFunction,Plated,PTH,ComponentDrill
T1C0.0276
; #@! TA.AperFunction,Plated,PTH,ComponentDrill
T2C0.0295
; #@! TA.AperFunction,Plated,PTH,ComponentDrill
T3C0.0315
; #@! TA.AperFunction,Plated,PTH,ComponentDrill
T4C0.0394
; #@! TA.AperFunction,Plated,PTH,ComponentDrill
T5C0.0433
; #@! TA.AperFunction,Plated,PTH,ComponentDrill
T6C0.0472
; #@! TA.AperFunction,Plated,PTH,ComponentDrill
T7C0.0512
%
G90
G05
T1
X4.025Y-3.74
X4.025Y-4.04
X4.025Y-4.215
X4.025Y-4.34
X4.025Y-4.44
X4.045Y-3.1
X4.05Y-4.69
X4.05Y-4.99
X4.055Y-3.24
X4.055Y-3.345
X4.325Y-4.215
X4.325Y-4.34
X4.325Y-4.44
X4.345Y-3.1
X4.355Y-3.24
X4.355Y-3.345
X4.645Y-3.99
X4.665Y-3.74
X4.675Y-5.04
X4.825Y-4.54
X4.825Y-4.84
X4.945Y-3.99
X4.965Y-3.74
X4.975Y-5.04
X4.995Y-4.73
X5.275Y-3.99
X5.295Y-4.73
X5.385Y-4.995
X5.425Y-3.19
X5.425Y-3.39
X5.475Y-4.29
X5.575Y-3.99
X5.685Y-4.995
X5.725Y-3.19
X5.725Y-3.39
X5.775Y-4.29
X6.15Y-4.595
X6.15Y-4.895
X6.175Y-3.54
X6.175Y-3.84
X6.3Y-4.59
X6.3Y-4.89
X6.35Y-3.54
X6.35Y-3.84
X6.525Y-3.59
X6.525Y-3.84
X6.525Y-4.69
X6.525Y-4.84
X6.825Y-3.59
X6.825Y-3.84
X6.825Y-4.69
X6.825Y-4.84
T2
X4.84Y-2.74
X4.89Y-2.69
X4.89Y-2.79
X5.11Y-3.8
X5.14Y-4.95
X5.16Y-3.75
X5.175Y-3.49
X5.175Y-4.54
X5.19Y-4.9
X5.21Y-3.8
X5.225Y-3.44
X5.225Y-4.49
X5.24Y-4.95
X5.275Y-3.49
X5.275Y-4.54
X5.845Y-3.975
X5.875Y-4.53
X5.875Y-4.875
X5.895Y-4.025
X5.925Y-3.54
X5.925Y-4.48
X5.925Y-4.925
X5.945Y-3.975
X5.975Y-3.49
X5.975Y-4.53
X5.975Y-4.875
X6.025Y-3.54
T3
X3.675Y-3.94
X3.675Y-4.94
X3.775Y-3.84
X3.775Y-4.84
X3.875Y-3.94
X3.875Y-4.94
X4.225Y-3.49
X4.225Y-3.79
X4.225Y-4.59
X4.225Y-4.89
X4.325Y-3.49
X4.325Y-3.79
X4.325Y-4.59
X4.325Y-4.89
X4.425Y-3.49
X4.425Y-3.79
X4.425Y-4.59
X4.425Y-4.89
X4.4731Y-4.31
X4.475Y-4.175
X4.475Y-4.44
X4.4781Y-3.205
X4.48Y-3.07
X4.48Y-3.34
X4.525Y-3.49
X4.525Y-3.79
X4.525Y-4.59
X4.525Y-4.89
X4.67Y-4.31
X4.6719Y-4.175
X4.6719Y-4.44
X4.675Y-3.205
X4.6769Y-3.07
X4.6769Y-3.34
X4.925Y-3.105
X4.925Y-3.24
X5.025Y-4.17
X5.025Y-4.29
X5.225Y-3.105
X5.225Y-3.24
X5.325Y-4.17
X5.325Y-4.29
X5.435Y-4.1
X5.44Y-5.12
X5.55Y-4.565
X5.55Y-4.865
X5.575Y-3.54
X5.575Y-3.84
X5.6319Y-4.1
X5.6369Y-5.12
X5.7Y-4.565
X5.7Y-4.865
X5.725Y-2.54
X5.725Y-2.84
X5.725Y-3.54
X5.725Y-3.84
X5.825Y-2.54
X5.825Y-2.84
X5.925Y-2.54
X5.925Y-2.84
X6.025Y-2.54
X6.025Y-2.84
T4
X4.0294Y-2.89
X4.62Y-2.89
X4.985Y-2.39
X5.5Y-3.04
X5.5756Y-2.39
X6.0906Y-3.04
X6.3Y-2.4944
X6.3Y-3.085
T5
X4.07Y-2.69
X4.57Y-2.69
T6
X4.0863Y-2.385
X4.795Y-2.385
T7
X3.725Y-4.395
X3.725Y-4.5919
X3.7323Y-2.7323
X3.7323Y-2.9291
X3.7362Y-2.2402
X3.7362Y-2.437
X3.7362Y-3.3465
X3.7362Y-3.5433
X7.1336Y-4.2306
X7.1336Y-4.4275
X7.1339Y-3.2008
X7.1339Y-3.3976
M30
